<svg width="1200" height="720" viewBox="0 0 1200 720" fill="none" xmlns="http://www.w3.org/2000/svg">
  <defs>
    <linearGradient id="bg" x1="144" y1="72" x2="1056" y2="648" gradientUnits="userSpaceOnUse">
      <stop stop-color="#082F49"/>
      <stop offset="0.5" stop-color="#0F172A"/>
      <stop offset="1" stop-color="#0B3B5D"/>
    </linearGradient>
    <linearGradient id="glowA" x1="204" y1="128" x2="506" y2="392" gradientUnits="userSpaceOnUse">
      <stop stop-color="#22D3EE" stop-opacity="0.55"/>
      <stop offset="1" stop-color="#22D3EE" stop-opacity="0"/>
    </linearGradient>
    <linearGradient id="glowB" x1="730" y1="210" x2="1040" y2="534" gradientUnits="userSpaceOnUse">
      <stop stop-color="#3B82F6" stop-opacity="0.45"/>
      <stop offset="1" stop-color="#3B82F6" stop-opacity="0"/>
    </linearGradient>
    <linearGradient id="panel" x1="286" y1="176" x2="918" y2="540" gradientUnits="userSpaceOnUse">
      <stop stop-color="#0F172A" stop-opacity="0.98"/>
      <stop offset="1" stop-color="#111827" stop-opacity="0.92"/>
    </linearGradient>
    <linearGradient id="accent" x1="336" y1="244" x2="522" y2="420" gradientUnits="userSpaceOnUse">
      <stop stop-color="#22D3EE"/>
      <stop offset="1" stop-color="#2563EB"/>
    </linearGradient>
    <linearGradient id="card" x1="0" y1="0" x2="1" y2="1">
      <stop stop-color="#FFFFFF" stop-opacity="0.12"/>
      <stop offset="1" stop-color="#FFFFFF" stop-opacity="0.05"/>
    </linearGradient>
  </defs>

  <rect width="1200" height="720" rx="36" fill="url(#bg)"/>
  <circle cx="238" cy="162" r="180" fill="url(#glowA)"/>
  <circle cx="952" cy="238" r="220" fill="url(#glowB)"/>
  <circle cx="1042" cy="588" r="160" fill="#10B981" fill-opacity="0.08"/>

  <rect x="162" y="116" width="876" height="488" rx="32" fill="url(#panel)" stroke="white" stroke-opacity="0.12"/>

  <rect x="208" y="166" width="254" height="336" rx="24" fill="url(#card)" stroke="white" stroke-opacity="0.08"/>
  <rect x="488" y="166" width="500" height="120" rx="24" fill="url(#card)" stroke="white" stroke-opacity="0.08"/>
  <rect x="488" y="312" width="238" height="190" rx="24" fill="url(#card)" stroke="white" stroke-opacity="0.08"/>
  <rect x="750" y="312" width="238" height="190" rx="24" fill="url(#card)" stroke="white" stroke-opacity="0.08"/>

  <rect x="232" y="194" width="98" height="24" rx="12" fill="#22D3EE" fill-opacity="0.18"/>
  <rect x="232" y="236" width="182" height="16" rx="8" fill="#E2E8F0" fill-opacity="0.84"/>
  <rect x="232" y="266" width="152" height="12" rx="6" fill="#94A3B8" fill-opacity="0.7"/>
  <rect x="232" y="288" width="176" height="12" rx="6" fill="#94A3B8" fill-opacity="0.55"/>

  <rect x="232" y="330" width="190" height="18" rx="9" fill="#0B1220" fill-opacity="0.75"/>
  <rect x="232" y="360" width="176" height="14" rx="7" fill="#94A3B8" fill-opacity="0.45"/>
  <rect x="232" y="384" width="156" height="14" rx="7" fill="#94A3B8" fill-opacity="0.45"/>
  <rect x="232" y="408" width="200" height="14" rx="7" fill="#94A3B8" fill-opacity="0.45"/>
  <rect x="232" y="446" width="190" height="22" rx="11" fill="url(#accent)"/>

  <path d="M516 244H940" stroke="#94A3B8" stroke-opacity="0.25" stroke-width="2"/>
  <path d="M520 218H742" stroke="#E2E8F0" stroke-opacity="0.88" stroke-width="4" stroke-linecap="round"/>
  <path d="M520 238H664" stroke="#94A3B8" stroke-opacity="0.66" stroke-width="4" stroke-linecap="round"/>

  <rect x="520" y="340" width="84" height="84" rx="24" fill="#22D3EE" fill-opacity="0.16"/>
  <rect x="546" y="366" width="32" height="32" rx="12" fill="#22D3EE" fill-opacity="0.78"/>
  <path d="M578 398L598 378" stroke="#22D3EE" stroke-width="6" stroke-linecap="round"/>
  <path d="M610 392L626 376" stroke="#22D3EE" stroke-opacity="0.7" stroke-width="4" stroke-linecap="round"/>

  <rect x="782" y="340" width="150" height="18" rx="9" fill="#E2E8F0" fill-opacity="0.85"/>
  <rect x="782" y="372" width="132" height="12" rx="6" fill="#94A3B8" fill-opacity="0.65"/>
  <rect x="782" y="394" width="118" height="12" rx="6" fill="#94A3B8" fill-opacity="0.5"/>
  <rect x="782" y="434" width="142" height="22" rx="11" fill="#2563EB" fill-opacity="0.82"/>

  <rect x="520" y="170" width="120" height="28" rx="14" fill="#22C55E" fill-opacity="0.16"/>
  <rect x="654" y="170" width="120" height="28" rx="14" fill="#F59E0B" fill-opacity="0.16"/>
  <rect x="788" y="170" width="120" height="28" rx="14" fill="#3B82F6" fill-opacity="0.16"/>

  <circle cx="944" cy="548" r="42" fill="#22D3EE" fill-opacity="0.16"/>
  <circle cx="944" cy="548" r="24" fill="#22D3EE" fill-opacity="0.55"/>
  <path d="M944 522V574" stroke="#E2E8F0" stroke-opacity="0.85" stroke-width="5" stroke-linecap="round"/>
  <path d="M918 548H970" stroke="#E2E8F0" stroke-opacity="0.85" stroke-width="5" stroke-linecap="round"/>
</svg>
